<?xml version="1.0" ?><!DOCTYPE svg  PUBLIC '-//W3C//DTD SVG 1.1//EN'  'http://www.w3.org/Graphics/SVG/1.1/DTD/svg11.dtd'><svg style="enable-background:new 0 0 512 512;" version="1.1" viewBox="0 0 512 512" xml:space="preserve" xmlns="http://www.w3.org/2000/svg" xmlns:xlink="http://www.w3.org/1999/xlink"><g id="user"><g><circle cx="256" cy="256" r="253.44"/><circle cx="256" cy="213.43" r="73.511" style="fill:#FFFFFF;"/><path d="M184.69,286.819c0.05,0.049,0.089,0.099,0.139,0.148c-0.05,0.029-0.089,0.049-0.139,0.079    c-0.049-0.05-0.089-0.099-0.139-0.149C184.601,286.879,184.641,286.849,184.69,286.819z" style="fill:#FFFFFF;"/><path d="M327.478,286.859c-0.049,0.059-0.109,0.129-0.168,0.188c-0.059-0.04-0.119-0.07-0.178-0.099    c0.059-0.059,0.119-0.129,0.178-0.188C327.369,286.789,327.419,286.829,327.478,286.859z" style="fill:#FFFFFF;"/><path d="M360.802,296.893v74.185h-209.88v-74.185c0-19.173,15.543-34.715,34.715-34.715h4.122    c15.018,20.79,39.095,33.373,66.241,33.373s51.223-12.583,66.241-33.373h3.845C345.259,262.178,360.802,277.72,360.802,296.893z" style="fill:#FFFFFF;"/></g></g><g id="Layer_1"/></svg>